<?xml version="1.0" encoding="UTF-8" standalone="no"?>
<svg
   xmlns:dc="http://purl.org/dc/elements/1.1/"
   xmlns:cc="http://creativecommons.org/ns#"
   xmlns:rdf="http://www.w3.org/1999/02/22-rdf-syntax-ns#"
   xmlns:svg="http://www.w3.org/2000/svg"
   xmlns="http://www.w3.org/2000/svg"
   xmlns:sodipodi="http://sodipodi.sourceforge.net/DTD/sodipodi-0.dtd"
   xmlns:inkscape="http://www.inkscape.org/namespaces/inkscape"
   inkscape:version="1.0alpha2 (883c7bc, 2019-06-02)"
   sodipodi:docname="km-logo.svg"
   id="svg62"
   viewBox="0 0 640 106"
   style="clip-rule:evenodd;fill-rule:evenodd;image-rendering:optimizeQuality;shape-rendering:geometricPrecision;text-rendering:geometricPrecision"
   version="1.1"
   height="106"
   width="640"
   xml:space="preserve"><metadata
   id="metadata66">
  <rdf:RDF>
    <cc:Work
   rdf:about="">
      <dc:format>image/svg+xml</dc:format>


      <dc:type
   rdf:resource="http://purl.org/dc/dcmitype/StillImage" />


      <dc:title></dc:title>


    </cc:Work>


  </rdf:RDF>


</metadata>


<sodipodi:namedview
   viewbox-x="-0.5"
   units="px"
   inkscape:current-layer="svg62"
   inkscape:window-maximized="0"
   inkscape:window-y="0"
   inkscape:window-x="0"
   inkscape:cy="345.49283"
   inkscape:cx="616.82616"
   inkscape:zoom="0.75535534"
   showgrid="true"
   id="namedview64"
   inkscape:window-height="900"
   inkscape:window-width="1440"
   inkscape:pageshadow="2"
   inkscape:pageopacity="0"
   guidetolerance="10"
   gridtolerance="10"
   objecttolerance="10"
   borderopacity="1"
   inkscape:document-rotation="0"
   bordercolor="#666666"
   pagecolor="#ffffff">
  <inkscape:grid
   empspacing="8"
   spacingx="1"
   originy="0"
   originx="0"
   id="grid170"
   type="xygrid" />


</sodipodi:namedview>



 <defs
   id="defs12">
  <style
   id="style10"
   type="text/css">
   <![CDATA[
    .fil2 {fill:#0F0C0E}
    .fil0 {fill:#B8BABD}
    .fil1 {fill:#FEFEFE}
    .fil3 {fill:#9A9A9E;fill-rule:nonzero}
   ]]>
  </style>



 
   
   
   
   
   
   
   
   
   
   
   
   
   
   
   
   
   
   
   
   
   
   
   
   
   
  
  

  

 </defs>



 








<path
   d="m 619,106 h 21 l 3.5,-22 h -21 z M 637,0 624.5,73 h 21 L 658,0 Z m -48.89708,47 h -5.4636 c -2.09441,0.02466 -3.64241,-0.641523 -4.59977,-1.349 -0.95491,-0.685294 -1.43484,-2.010183 -1.41024,-3.755463 0,-0.308134 0.0222,-0.778966 0.0911,-1.461793 0.0467,-0.660641 0.13539,-1.417419 0.22644,-2.265409 0.11569,-0.847988 0.22889,-1.673791 0.36672,-2.499593 l 1.77443,-9.623681 c 0.33964,-2.053411 0.84171,-3.606411 1.45696,-4.668863 0.63743,-1.087101 1.50125,-1.59904 2.594,-1.976198 1.09272,-0.379622 2.52753,-0.42465 4.27986,-0.4 H 593 Z M 620,0 h -24 c -6.53174,-0.04437147 -12.15477,0.28988986 -16.91205,0.9973683 -4.73515,0.7050135 -8.74181,2.0287623 -11.97569,3.9392008 -3.22896,1.9104382 -5.8254,4.6688645 -7.78197,8.2530949 -1.98119,3.586693 -3.43812,8.255558 -4.41768,13.989336 -0.56848,3.322929 -1.04597,6.130658 -1.4102,8.418254 -0.36423,2.26541 -0.63741,4.126546 -0.81954,5.590806 -0.20673,1.461793 -0.31995,2.664751 -0.411,3.584229 -0.0664,0.919475 -0.0911,1.698442 -0.0911,2.359082 0,3.867712 0.68417,7.027949 2.09436,9.480706 1.41268,2.452754 3.57597,4.341007 6.51206,5.659826 L 539.5,106 h 24 l 18,-41 h 3.5 l -7,41 h 24 z M 500.5,60 H 513 l -8,46 h 24 L 547,0 h -24 l -7,41 h -12.5 l 7,-41 h -24 l -17.90283,106 h 23.89965 z M 442,60 h 19 l 3.5,-18 h -20 l 4,-23 H 470 l 3,-19 h -45 l -18,106 h 47 l 3,-19 h -23 z m -144,46 h 21 l 13.5,-90 v 90 H 359 l 31,-90 -16.5,90 H 395 L 413,0 H 379 L 350.5,83.5 V 0 H 316 Z M 262,31 h -21 l -19,35 6,-35 h -19 l -13,75 h 21 l 18,-35 -6,35 h 20 z m -100,75 h 21 l 12,-75 h -52 l -13,75 h 21 l 10,-58 h 11 z m -80.5,-75 -3,75 H 94 c -1.004128,3.79869 -2.516229,6.60394 -4.428497,8.39852 -1.934421,1.76992 -4.439813,2.66476 -7.489106,2.6401 -0.681726,0 -1.456967,-0.0469 -2.342962,-0.14051 -0.888457,-0.0936 -1.890122,-0.28349 -2.982845,-0.56698 l -2.731814,15.70999 c 1.981177,0.56697 3.893449,0.96629 5.781107,1.20296 1.86797,0.23418 3.711331,0.3525 5.554689,0.3525 4.07311,0 7.53587,-0.66065 10.449803,-1.98192 2.889324,-1.31881 5.392255,-3.34759 7.511265,-6.037 2.11653,-2.71405 4.05094,-6.13066 5.7811,-10.25966 1.73015,-4.10437 3.4603,-8.96304 5.21261,-14.55138 L 136,31 H 116 L 98.200096,95.244839 H 97.924453 L 102.5,31 Z M 18,0 0,106 h 24 l 8,-48 10,48 H 67 L 53.5,50 82,0 H 57 L 34,46 42,0 Z"
   style="opacity:1;fill:#000000;fill-opacity:1;stroke:none;stroke-width:1.00081;stop-opacity:1"
   id="path51" />



</svg>
